<svg xmlns="http://www.w3.org/2000/svg" xmlns:xlink="http://www.w3.org/1999/xlink" viewBox="0 0 512 512"><defs><style>.cls-1{isolation:isolate;}.cls-2{fill:url(#linear-gradient);}.cls-3{fill:url(#linear-gradient-2);}.cls-4{fill:url(#linear-gradient-3);}.cls-5{fill:url(#linear-gradient-4);}.cls-6{fill:url(#linear-gradient-5);}.cls-7{fill:url(#linear-gradient-6);}.cls-8{fill:url(#linear-gradient-7);}.cls-16,.cls-23,.cls-9{mix-blend-mode:screen;}.cls-9{fill:url(#radial-gradient);}.cls-10{fill:url(#linear-gradient-8);}.cls-11{fill:url(#linear-gradient-9);}.cls-12{fill:url(#linear-gradient-10);}.cls-13{fill:url(#linear-gradient-11);}.cls-14{fill:url(#linear-gradient-12);}.cls-15{fill:url(#linear-gradient-13);}.cls-16{fill:url(#radial-gradient-2);}.cls-17{fill:url(#linear-gradient-14);}.cls-18{fill:url(#linear-gradient-15);}.cls-19{fill:url(#linear-gradient-16);}.cls-20{fill:url(#linear-gradient-17);}.cls-21{fill:url(#linear-gradient-18);}.cls-22{fill:url(#linear-gradient-19);}.cls-23{fill:url(#radial-gradient-3);}.cls-24{fill:url(#linear-gradient-20);}</style><linearGradient id="linear-gradient" x1="210.52" y1="-92.32" x2="191.55" y2="461.77" gradientUnits="userSpaceOnUse"><stop offset="0" stop-color="#fef788"/><stop offset="0.04" stop-color="#fcf07d"/><stop offset="0.11" stop-color="#f5de61"/><stop offset="0.21" stop-color="#ebc132"/><stop offset="0.25" stop-color="#e5b119"/><stop offset="0.53" stop-color="#fff27f"/><stop offset="0.59" stop-color="#fbe870"/><stop offset="0.69" stop-color="#f1ce47"/><stop offset="0.79" stop-color="#e5b119"/></linearGradient><linearGradient id="linear-gradient-2" x1="29.16" y1="174.21" x2="476.9" y2="372.94" gradientUnits="userSpaceOnUse"><stop offset="0.3" stop-color="#29abe2"/><stop offset="0.56" stop-color="#1b1464"/><stop offset="0.66" stop-color="#1a1361"/><stop offset="0.75" stop-color="#171156"/><stop offset="0.83" stop-color="#130e45"/><stop offset="0.9" stop-color="#0c092d"/><stop offset="0.97" stop-color="#04030e"/><stop offset="1"/></linearGradient><linearGradient id="linear-gradient-3" x1="366.36" y1="28.66" x2="374.78" y2="72.37" gradientTransform="translate(11.35 -47.13) rotate(7.42)" gradientUnits="userSpaceOnUse"><stop offset="0" stop-color="#fdd733"/><stop offset="1" stop-color="#f9ab21"/></linearGradient><linearGradient id="linear-gradient-4" x1="368.23" y1="32.4" x2="371.69" y2="68.04" gradientTransform="translate(11.35 -47.13) rotate(7.42)" gradientUnits="userSpaceOnUse"><stop offset="0" stop-color="#fde265"/><stop offset="1" stop-color="#fdd733"/></linearGradient><linearGradient id="linear-gradient-5" x1="351.25" y1="40.11" x2="351.05" y2="70.5" gradientTransform="translate(11.35 -47.13) rotate(7.42)" gradientUnits="userSpaceOnUse"><stop offset="0" stop-color="#ea8d07"/><stop offset="1" stop-color="#b26500"/></linearGradient><linearGradient id="linear-gradient-6" x1="369.61" y1="40.23" x2="369.41" y2="70.62" xlink:href="#linear-gradient-5"/><linearGradient id="linear-gradient-7" x1="387.68" y1="40.35" x2="387.48" y2="70.74" xlink:href="#linear-gradient-5"/><radialGradient id="radial-gradient" cx="485.6" cy="134.22" r="26.28" gradientTransform="matrix(0.95, 0.12, -0.12, 0.95, -69.5, -127.34)" gradientUnits="userSpaceOnUse"><stop offset="0" stop-color="#fced97"/><stop offset="1"/></radialGradient><linearGradient id="linear-gradient-8" x1="369.28" y1="29.21" x2="369.94" y2="70.04" gradientTransform="matrix(0.91, 0.12, -0.13, 0.99, 40.98, -43.27)" gradientUnits="userSpaceOnUse"><stop offset="0" stop-color="#fdd733"/><stop offset="1" stop-color="#fbc12a"/></linearGradient><linearGradient id="linear-gradient-9" x1="423.81" y1="85.12" x2="427.88" y2="106.2" xlink:href="#linear-gradient-3"/><linearGradient id="linear-gradient-10" x1="424.72" y1="86.92" x2="426.38" y2="104.11" xlink:href="#linear-gradient-4"/><linearGradient id="linear-gradient-11" x1="416.52" y1="90.64" x2="416.43" y2="105.3" xlink:href="#linear-gradient-5"/><linearGradient id="linear-gradient-12" x1="425.38" y1="90.69" x2="425.28" y2="105.35" xlink:href="#linear-gradient-5"/><linearGradient id="linear-gradient-13" x1="434.1" y1="90.75" x2="434" y2="105.41" xlink:href="#linear-gradient-5"/><radialGradient id="radial-gradient-2" cx="542.51" cy="177.01" r="12.68" xlink:href="#radial-gradient"/><linearGradient id="linear-gradient-14" x1="425.16" y1="85.38" x2="425.48" y2="105.08" gradientTransform="translate(11.35 -47.13) rotate(7.42)" xlink:href="#linear-gradient-8"/><linearGradient id="linear-gradient-15" x1="424.43" y1="151.08" x2="427.91" y2="169.12" gradientTransform="translate(38.52 -89.7) rotate(13.81)" xlink:href="#linear-gradient-3"/><linearGradient id="linear-gradient-16" x1="425.2" y1="152.62" x2="426.63" y2="167.33" gradientTransform="translate(38.52 -89.7) rotate(13.81)" xlink:href="#linear-gradient-4"/><linearGradient id="linear-gradient-17" x1="418.19" y1="155.8" x2="418.11" y2="168.35" gradientTransform="translate(38.52 -89.7) rotate(13.81)" xlink:href="#linear-gradient-5"/><linearGradient id="linear-gradient-18" x1="425.77" y1="155.85" x2="425.69" y2="168.4" gradientTransform="translate(38.52 -89.7) rotate(13.81)" xlink:href="#linear-gradient-5"/><linearGradient id="linear-gradient-19" x1="433.23" y1="155.9" x2="433.15" y2="168.44" gradientTransform="translate(38.52 -89.7) rotate(13.81)" xlink:href="#linear-gradient-5"/><radialGradient id="radial-gradient-3" cx="542.7" cy="243.98" r="10.85" gradientTransform="translate(-32.89 -178.41) rotate(13.81) scale(0.95 0.95)" xlink:href="#radial-gradient"/><linearGradient id="linear-gradient-20" x1="425.58" y1="151.3" x2="425.86" y2="168.16" gradientTransform="translate(38.52 -89.7) rotate(13.81)" xlink:href="#linear-gradient-8"/></defs><g class="cls-1"><g id="Layer_1" data-name="Layer 1"><path class="cls-2" d="M55.83,162.24c14.41-9.32.35-46.77.35-46.77l14.38-7.82a.07.07,0,0,1,.1.06c.18.74,3.58,4.28,4,4.57a14.31,14.31,0,0,0,5.46,2.58C89.4,117,99.45,109.21,99,99.55a14.22,14.22,0,0,0-1.67-6l-.65-1.21L113.8,84l.12.24a14.48,14.48,0,0,0,9.69,7.57c4.35,1,8.72-.53,12.48-2.67s6.81-5,8.09-9.11a14.46,14.46,0,0,0-.89-10.67L157.43,62a.08.08,0,0,1,.11.06c.15.77,3.71,4.46,4.13,4.77a13.93,13.93,0,0,0,5.9,2.56c4.67.83,9.45-1,13.42-3.35,5.81-3.4,10.72-7.75,9.49-17.28l-1.58-3a.08.08,0,0,1,0-.09l13.77-7.16,1.08,2.08a13.1,13.1,0,0,0,10.1,6.92c4.68.52,9.87-1.89,13.08-5.24a13,13,0,0,0,2.12-15L233.35,25l10.29-5.34c14.19,27.29,44.77,27.77,44.77,27.77,1.46,2.59,2.72,5.42,4.12,8.12,17.76,34.21,35.34,68.52,53.46,102.54,3.6,6.77,3.79,12.17.42,19-27.15,55-64.65,102.28-108.56,144.41-21.29,20.42-40,37.49-68.78,58.72L159.67,362Q109.59,265.18,59.13,168.55Zm183.83-30.55c-7.95,8.23-14.53,14-19.83,20.78-6.47,8.29-13.79,10.73-23.94,8.14-8.62-2.19-17.63-2.87-30.11-4.77,6.61,11.7,11.24,20.5,16.47,28.93,4,6.48,4.37,12,.09,18.8-5.24,8.35-9,17.65-14.47,28.82,12.83-2.14,23.27-4.59,33.83-5.31a22.5,22.5,0,0,1,14.6,4.56c8.14,6.74,15.12,14.87,24.37,24.27,2.06-13.57,3-24.32,5.59-34.67A22.24,22.24,0,0,1,255,209.17c8.78-5.71,18.47-10,29.94-16-12-6-21-11.24-30.55-15-6.74-2.65-8.77-6.95-9.56-13.43C243.65,154.56,241.73,144.5,239.66,131.69Zm40.07-78.62c-71.5,37-140.62,75.93-211.2,112.45,26.07,49.56,50.28,98.16,75.81,146.7L75.16,168.91,277.31,63.78c20.32,33.7,41.55,68.89,62.6,103.81Z"/><path class="cls-3" d="M449.12,357.63c-14.41,9.33-.14,46.63-.14,46.63l-14.5,7.89c.45-.25-3.52-4.38-3.93-4.7a14.24,14.24,0,0,0-5.46-2.58c-9.33-2.17-19.37,5.65-18.88,15.31a14.07,14.07,0,0,0,1.67,6l.65,1.21-17.16,8.34-.12-.24a14.5,14.5,0,0,0-9.69-7.57c-4.36-1-8.72.53-12.48,2.67s-6.81,5-8.09,9.11a14.46,14.46,0,0,0,.89,10.67l-14.29,7.43c.5-.26-3.64-4.57-4.09-4.9a14,14,0,0,0-5.91-2.56c-4.67-.83-9.44,1-13.41,3.35s-7.4,5-8.91,9.43a13.57,13.57,0,0,0,.84,10.59l.19.36-13.83,7.19-1.09-2.08a13.08,13.08,0,0,0-10.09-6.92c-4.68-.52-9.87,1.89-13.09,5.24a13.05,13.05,0,0,0-2.11,15l-4.28,2.22-10.28,5.35c-14.19-27.3-45.23-28-45.23-28l-.35-.62,0-.07c-1.45-2.38-2.67-5-4.06-7.72-10.41-19.91-21.09-43-30.62-61.08q2.72-1.31,5.39-2.72C215.15,384.83,239,361.76,261,338.73c4.07-4.26,8.12-8.53,12.06-12.88,13.72-15.15,26.5-32.41,36-50.58-15,22.68-33.86,42.28-53.35,61.13-4.9,4.74-9.72,9.57-14.79,14.12-26.32,23.59-52.88,46.87-86.64,59.61a60.44,60.44,0,0,1-15.12,3.69c-15.1,1.49-21.37-4.11-23.54-21.44,15.82,13.25,31,6.39,45.58-.54,30.09-14.29,55.21-35.62,78.86-58.61,44.83-43.57,84.13-91.48,111.43-148.18A198.25,198.25,0,0,0,365,146.56c5.34-21.73-1.38-31.28-22.76-35.47.26-.31.44-.79.77-.91,12.29-4.85,25.25-11.6,37.4-2s8.19,23.71,4.71,35.82c-4.08,14.18-10,27.89-16,41.4-3,6.78-3.53,12,.13,19C395,253.19,420.3,302.2,446.1,351.86Zm-223.68,109,0,0"/><path class="cls-4" d="M375.88,28.5l4.48,13.14,13.38,3.76a2.05,2.05,0,0,1,.67,3.62L383.3,57.35l.56,13.88A2.06,2.06,0,0,1,380.62,73l-11.35-8-13,4.82a2,2,0,0,1-2.67-2.53L357.66,54l-8.61-10.9a2.05,2.05,0,0,1,1.58-3.32l13.89-.21L372.22,28A2.06,2.06,0,0,1,375.88,28.5Z"/><path class="cls-5" d="M381.75,71.77a.48.48,0,0,1-.21-.09l-12-8.47-13.81,5.11a.44.44,0,0,1-.22,0,.47.47,0,0,1-.33-.22.43.43,0,0,1-.05-.38l4.34-14.07L350.3,42.12a.43.43,0,0,1-.05-.48.45.45,0,0,1,.41-.26l14.72-.22,8.17-12.25a.42.42,0,0,1,.44-.2.43.43,0,0,1,.38.3L379.12,43l14.18,4a.42.42,0,0,1,.33.35.45.45,0,0,1-.17.45l-11.79,8.84.59,14.71a.4.4,0,0,1-.14.35A.44.44,0,0,1,381.75,71.77Z"/><path class="cls-6" d="M357.66,54l-8.61-10.9a2,2,0,0,1-.39-1.73h0s-.48,3.69-.48,3.69h0a2,2,0,0,0,.39,1.73l8.14,10.29Z"/><path class="cls-7" d="M383.8,71.79a2.05,2.05,0,0,1-3.18,1.2l-11.35-8-13,4.82a2.06,2.06,0,0,1-2.77-1.93l-.42,3.26a2.05,2.05,0,0,0,2.71,2.37l12.72-4.71.37-.07,11.29,8a2,2,0,0,0,3.23-1.59Z"/><path class="cls-8" d="M395.23,47.45a2,2,0,0,1-.82,1.57L383.3,57.35l.13,3.23,10.5-7.87a2,2,0,0,0,.82-1.56h0l.49-3.69Z"/><path class="cls-9" d="M393.63,47.29a.42.42,0,0,0-.33-.35l-14.18-4L374.37,29a.43.43,0,0,0-.38-.3.42.42,0,0,0-.44.2l-8.17,12.25-14.72.22a.45.45,0,0,0-.41.26.43.43,0,0,0,.05.48l3,3.78c6-1.91,13.56-1.35,20.75,2.1a32.11,32.11,0,0,1,9.68,7l9.74-7.3A.45.45,0,0,0,393.63,47.29Z"/><path class="cls-10" d="M389.72,47.26a.48.48,0,0,0,.16-.46.4.4,0,0,0-.29-.35l-12.93-3.82-4.2-13.86a.4.4,0,0,0-.34-.31.41.41,0,0,0-.41.21L364.1,41l-13.48.38a.4.4,0,0,0-.37.26.45.45,0,0,0,0,.48l8.23,11.44-4.13,14.1a.46.46,0,0,0,0,.38.42.42,0,0,0,.3.21.36.36,0,0,0,.2,0L367.63,63l10.92,8.34a.46.46,0,0,0,.19.08.48.48,0,0,0,.35-.13.49.49,0,0,0,.13-.35l-.38-14.69ZM378.84,71l0,0-11.11-8.47-12.9,5.35a.11.11,0,0,1,0-.08l4.19-14.31-8.35-11.6s0,0,0-.06,0,0,.05,0l13.67-.39L372,28.89s0,0,.06,0,0,0,0,0L376.37,43l13.12,3.88s0,0,0,0,0,0,0,.06l-11,9.08Z"/><path class="cls-11" d="M423,92l2.16,6.34,6.45,1.81a1,1,0,0,1,.33,1.75l-5.36,4,.27,6.7a1,1,0,0,1-1.56.85l-5.48-3.86-6.29,2.33a1,1,0,0,1-1.29-1.22l2-6.41L410.07,99a1,1,0,0,1,.76-1.61l6.7-.1,3.71-5.57A1,1,0,0,1,423,92Z"/><path class="cls-12" d="M425.84,112.82a.18.18,0,0,1-.1,0l-5.81-4.09-6.66,2.47h-.11a.25.25,0,0,1-.16-.11.22.22,0,0,1,0-.18l2.09-6.79-4.4-5.57a.22.22,0,0,1,0-.23.22.22,0,0,1,.2-.13l7.1-.1,3.94-5.92a.22.22,0,0,1,.22-.09.22.22,0,0,1,.18.14l2.29,6.73,6.84,1.92a.21.21,0,0,1,.16.17.22.22,0,0,1-.08.22l-5.69,4.26.29,7.1a.22.22,0,0,1-.07.17A.25.25,0,0,1,425.84,112.82Z"/><path class="cls-13" d="M414.22,104.25,410.07,99a.94.94,0,0,1-.19-.84h0s-.23,1.78-.23,1.78h0a1,1,0,0,0,.18.84l3.93,5Z"/><path class="cls-14" d="M426.83,112.83a1,1,0,0,1-1.53.58l-5.48-3.86-6.29,2.33a1,1,0,0,1-1.33-.93l-.21,1.57a1,1,0,0,0,1.31,1.14l6.14-2.27.18,0,5.44,3.83a1,1,0,0,0,1.56-.77Z"/><path class="cls-15" d="M432.34,101.09a1,1,0,0,1-.39.76l-5.36,4,.06,1.56,5.07-3.79a1,1,0,0,0,.39-.76h0l.23-1.78Z"/><path class="cls-16" d="M431.57,101a.21.21,0,0,0-.16-.17l-6.84-1.92-2.29-6.73a.22.22,0,0,0-.18-.14.22.22,0,0,0-.22.09l-3.94,5.92-7.1.1a.22.22,0,0,0-.2.13.22.22,0,0,0,0,.23l1.44,1.82a13.87,13.87,0,0,1,10,1,15.68,15.68,0,0,1,4.67,3.4l4.7-3.52A.22.22,0,0,0,431.57,101Z"/><path class="cls-17" d="M431.49,101.23a.22.22,0,0,0,.08-.22.21.21,0,0,0-.16-.17l-6.84-1.92-2.29-6.73a.22.22,0,0,0-.18-.14.22.22,0,0,0-.22.09l-3.94,5.92-7.1.1a.22.22,0,0,0-.2.13.22.22,0,0,0,0,.23l4.4,5.57L413,110.88a.22.22,0,0,0,0,.18.25.25,0,0,0,.16.11h.11l6.66-2.47,5.81,4.09a.18.18,0,0,0,.1,0,.25.25,0,0,0,.18-.06.22.22,0,0,0,.07-.17l-.29-7.1Zm-5.6,11.39h0l-5.9-4.16L413.19,111s0,0,0,0l2.13-6.89-4.47-5.65s0,0,0,0,0,0,0,0l7.21-.1,4-6s0,0,0,0,0,0,0,0l2.32,6.82,6.94,2s0,0,0,0,0,0,0,0l-5.77,4.32Z"/><path class="cls-18" d="M416.64,158.53l1.23,5.6,5.32,2.15a.85.85,0,0,1,.11,1.52l-4.95,2.91-.4,5.71a.85.85,0,0,1-1.41.58l-4.29-3.8-5.57,1.38a.85.85,0,0,1-1-1.17l2.29-5.25-3-4.87a.85.85,0,0,1,.8-1.29l5.71.55,3.69-4.38A.85.85,0,0,1,416.64,158.53Z"/><path class="cls-19" d="M417.05,176.55l-.08,0-4.55-4-5.9,1.47h-.09a.2.2,0,0,1-.13-.11.19.19,0,0,1,0-.15l2.43-5.58-3.21-5.16a.18.18,0,0,1,0-.2.19.19,0,0,1,.18-.09l6.05.59,3.91-4.65a.18.18,0,0,1,.19-.06.18.18,0,0,1,.14.14l1.31,5.94,5.64,2.28a.2.2,0,0,1,.12.16.18.18,0,0,1-.1.18l-5.24,3.08-.43,6.07a.2.2,0,0,1-.08.14A.21.21,0,0,1,417.05,176.55Z"/><path class="cls-20" d="M408,168.16l-3-4.87a.83.83,0,0,1-.08-.73h0l-.36,1.49h0a.81.81,0,0,0,.08.72l2.87,4.6Z"/><path class="cls-21" d="M417.9,176.65a.85.85,0,0,1-1.36.35l-4.29-3.8-5.57,1.38a.86.86,0,0,1-1.05-.92l-.32,1.31a.84.84,0,0,0,1,1.1l5.44-1.35h.15l4.27,3.78a.85.85,0,0,0,1.4-.5Z"/><path class="cls-22" d="M423.7,167.19a.81.81,0,0,1-.4.61l-4.95,2.91-.09,1.33,4.67-2.75a.84.84,0,0,0,.41-.6h0l.37-1.5Z"/><path class="cls-23" d="M423.06,167.05a.2.2,0,0,0-.12-.16l-5.64-2.28L416,158.67a.18.18,0,0,0-.14-.14.18.18,0,0,0-.19.06l-3.91,4.65-6.05-.59a.19.19,0,0,0-.18.09.18.18,0,0,0,0,.2l1.05,1.69a11.86,11.86,0,0,1,8.41,1.81,13.1,13.1,0,0,1,3.65,3.34l4.33-2.55A.18.18,0,0,0,423.06,167.05Z"/><path class="cls-24" d="M423,167.23a.18.18,0,0,0,.1-.18.2.2,0,0,0-.12-.16l-5.64-2.28L416,158.67a.18.18,0,0,0-.14-.14.18.18,0,0,0-.19.06l-3.91,4.65-6.05-.59a.19.19,0,0,0-.18.09.18.18,0,0,0,0,.2l3.21,5.16-2.43,5.58a.2.2,0,0,0,0,.15.2.2,0,0,0,.13.11h.09l5.9-1.47,4.55,4,.08,0a.21.21,0,0,0,.16,0,.2.2,0,0,0,.08-.14l.43-6.07Zm-5.84,9.15h0l-4.62-4.1-6,1.49a.11.11,0,0,1,0,0l2.47-5.65-3.26-5.23s0,0,0,0h0l6.14.59,4-4.71s0,0,0,0,0,0,0,0l1.33,6,5.72,2.32s0,0,0,0,0,0,0,0l-5.32,3.13Z"/></g></g></svg>